<svg width="200" height="200" viewBox="0 0 200 200" fill="none" xmlns="http://www.w3.org/2000/svg">
<path d="M107.965 34.0923C110.973 30.9392 113.818 27.7388 116.905 24.7952C119.6 22.226 122.578 21.817 125.114 23.2219C129.283 25.5285 130.328 30.0792 127.471 34.048C126.459 35.455 125.147 36.6592 123.939 37.9199C118.279 43.851 115.096 50.8483 114.699 59.0927C114.607 61.0035 115.156 62.2136 116.852 63.3745C129.017 71.696 133.163 88.2106 126.464 101.105C119.43 114.643 104.01 120.76 89.7951 115.648C75.8827 110.646 67.7072 96.0708 70.7327 81.6804C73.5445 68.3028 84.9442 58.6507 98.6667 58.0233C99.1675 58.0003 99.6687 57.9589 100.142 57.9259C100.681 54.6199 101.199 51.4245 101.728 48.1646C93.5228 50.1881 85.4765 49.334 77.7729 46.1742C66.5552 41.5764 59.1015 33.5466 56.1386 21.5274C54.0922 13.2143 60.2159 7.80747 66.3604 7.19485C84.9925 5.34219 103.358 15.7514 107.774 33.7795C107.806 33.9156 107.913 34.0298 107.95 34.0993L107.965 34.0923Z" fill="#F62F7F"/>
<path d="M63.2982 101.031C52.3384 104.063 36.0271 98.8033 29.6577 83.4968C23.7933 69.403 29.6277 53.0708 43.0582 45.8985C57.6133 38.1207 73.7071 44.1984 80.4942 53.9358C63.4738 65.5322 57.7562 81.2027 63.2962 101.037L63.2982 101.031Z" fill="#F62F7F"/>
<path d="M119.2 121.385C135.621 111.57 142.555 92.4108 136.403 74.5099C145.463 71.4583 161.863 75.3979 169.136 89.7999C176.241 103.86 171.339 120.763 157.778 128.891C145.032 136.525 127.425 133.161 119.2 121.385Z" fill="#F62F7F"/>
<path d="M34.4149 103.544C44.9306 110.578 55.9588 112.365 67.7935 109.378C73.1985 117.215 80.5513 122.31 89.789 125.194C86.0017 135.848 78.8166 142.575 68.0837 145.309C56.4926 148.26 44.3964 143.815 37.5412 134.128C30.8658 124.699 29.9114 114.572 34.4149 103.544Z" fill="#F62F7F"/>
<path d="M75.4194 152.585C81.3004 162.466 89.6379 168.774 100.788 171.951C97.3098 180.903 91.1827 187.088 82.109 189.904C69.9503 193.676 59.1715 190.796 50.6743 181.339C43.0555 172.856 41.4146 162.834 44.8397 151.687C55.0158 155.911 65.117 156.411 75.4139 152.583L75.4194 152.585Z" fill="#F62F7F"/>
<path d="M83.5839 148.216C88.446 144.661 92.5081 140.309 95.2958 134.907C96.4633 132.646 97.3828 130.246 98.2338 127.845C98.6141 126.769 99.1087 126.438 100.215 126.343C103.188 126.088 106.136 125.593 109.105 125.33C109.807 125.268 110.858 125.514 111.236 126.014C118.191 135.139 127.291 140.466 138.71 141.797C138.918 141.823 139.119 141.94 139.32 142.02C138.275 149.872 129.705 161.404 114.926 163.696C100.492 165.934 87.7581 157.205 83.5784 148.214L83.5839 148.216Z" fill="#F62F7F"/>
</svg>
