<svg width="100" height="100" viewBox="0 0 100 100" fill="none" xmlns="http://www.w3.org/2000/svg">
<path d="M38.52 95.0752C38.6736 94.1066 38.0128 93.1968 37.044 93.0432C36.0752 92.8896 35.1653 93.5504 35.0116 94.519L34.5174 97.6359C34.3637 98.6045 35.0246 99.5143 35.9934 99.6679C36.9622 99.8215 37.8721 99.1607 38.0257 98.1921L38.52 95.0752Z" fill="#E38702"/>
<path d="M41.1213 93.7227C40.77 92.807 39.7427 92.3495 38.8269 92.7008C37.9111 93.0521 37.4535 94.0792 37.8049 94.9949L38.9355 97.9413C39.2869 98.8569 40.3141 99.3144 41.2299 98.9631C42.1457 98.6118 42.6033 97.5847 42.2519 96.6691L41.1213 93.7227Z" fill="#E38702"/>
<path d="M35.9046 95.4147C36.6536 94.7814 36.7473 93.661 36.1139 92.9121C35.4805 92.1632 34.3599 92.0695 33.6109 92.7028L31.2008 94.7406C30.4519 95.3739 30.3581 96.4944 30.9915 97.2432C31.6249 97.9921 32.7456 98.0858 33.4946 97.4525L35.9046 95.4147Z" fill="#E38702"/>
<path d="M35.4252 91.9687C34.4488 91.875 33.5813 92.5905 33.4876 93.5668C33.3939 94.5431 34.1095 95.4104 35.086 95.5041L39.2166 95.9003C40.193 95.9939 41.0605 95.2784 41.1541 94.3022C41.2478 93.3259 40.5322 92.4586 39.5558 92.3649L35.4252 91.9687Z" fill="#E38702"/>
<path d="M61.5315 98.2462C61.6851 99.2148 62.595 99.8755 63.5638 99.722C64.5326 99.5684 65.1935 98.6586 65.0398 97.69L64.5456 94.5731C64.3919 93.6045 63.482 92.9437 62.5132 93.0973C61.5445 93.2509 60.8836 94.1607 61.0372 95.1293L61.5315 98.2462Z" fill="#E38702"/>
<path d="M57.3065 96.7212C56.9551 97.6369 57.4127 98.664 58.3285 99.0153C59.2443 99.3666 60.2715 98.9091 60.6229 97.9934L61.7535 95.047C62.1049 94.1313 61.6473 93.1043 60.7315 92.7529C59.8157 92.4016 58.7884 92.8591 58.437 93.7748L57.3065 96.7212Z" fill="#E38702"/>
<path d="M66.0673 97.5047C66.8163 98.138 67.9369 98.0443 68.5703 97.2954C69.2037 96.5465 69.11 95.4261 68.361 94.7928L65.951 92.755C65.202 92.1217 64.0813 92.2154 63.448 92.9643C62.8146 93.7131 62.9083 94.8336 63.6573 95.4669L66.0673 97.5047Z" fill="#E38702"/>
<path d="M60.0049 92.4156C59.0285 92.5093 58.3129 93.3766 58.4066 94.3529C58.5002 95.3292 59.3677 96.0447 60.3441 95.951L64.4747 95.5548C65.4512 95.4611 66.1668 94.5938 66.0731 93.6175C65.9794 92.6413 65.1119 91.9258 64.1355 92.0194L60.0049 92.4156Z" fill="#E38702"/>
<path d="M49.6928 11.4902C69.4204 11.6504 80.5501 22.5391 80.1039 47.8718C87.5375 79.1832 76.2692 95.5829 49.6928 95.0035C23.1165 95.5829 11.85 79.1832 19.2818 47.8718C18.8355 22.5373 29.9652 11.6504 49.6928 11.4902Z" fill="#FFD0D0"/>
<path d="M80.1039 47.8718C80.5502 22.5373 69.4204 11.6504 49.6929 11.4902C29.9653 11.6504 18.8356 22.5391 19.2818 47.8718C14.7885 66.7993 17.1315 80.2753 25.5566 87.8481C24.619 85.8618 24.1062 83.7243 24.1062 81.4969C24.1062 70.9932 35.4608 62.4794 49.4679 62.4794C63.475 62.4794 74.8296 70.9932 74.8296 81.4969C74.8296 83.9816 74.1926 86.3548 73.0374 88.5318C82.1067 81.1011 84.7375 67.3823 80.1057 47.8718H80.1039Z" fill="#F44343"/>
<path d="M17.1692 48.5756C9.60066 56.6827 5.72101 66.9669 5.00302 79.1187C4.94904 80.0327 5.62564 80.765 6.48758 80.738C13.3885 80.5329 20.0412 75.9503 22.9617 68.651C25.8823 61.3516 24.216 53.383 19.316 48.4784C18.7258 47.8883 17.7757 47.926 17.171 48.5738L17.1692 48.5756Z" fill="#D11A2B"/>
<path d="M82.2452 48.5756C89.8138 56.6845 93.6934 66.9687 94.4114 79.1187C94.4654 80.0327 93.7888 80.765 92.9269 80.738C86.0259 80.5329 79.3732 75.9503 76.4527 68.651C73.5196 61.3229 75.1985 53.383 80.0984 48.4784C80.6887 47.8883 81.6388 47.926 82.2434 48.5738L82.2452 48.5756Z" fill="#D11A2B"/>
<path d="M57.5457 12.2137C55.8003 6.63617 51.809 2.69413 45.9967 0.0780964C45.5253 -0.134209 44.98 0.103285 44.7965 0.58547C44.0605 2.51421 44.1991 4.79739 45.0106 7.35584C43.3281 7.20471 41.7644 7.27308 40.3644 7.63652C39.8678 7.76606 39.5816 8.29502 39.7472 8.78081C40.26 10.2939 41.1202 11.4598 42.3924 12.2155H57.5475L57.5457 12.2137Z" fill="#F44343"/>
<path d="M34.0212 44.7178H27.7303C25.3729 44.7178 23.4619 46.6285 23.4619 48.9855V48.9873C23.4619 51.3442 25.3729 53.255 27.7303 53.255H34.0212C36.3785 53.255 38.2895 51.3442 38.2895 48.9873V48.9855C38.2895 46.6285 36.3785 44.7178 34.0212 44.7178Z" fill="#FF6B6B"/>
<path d="M71.4592 44.7178H65.1682C62.8109 44.7178 60.8999 46.6285 60.8999 48.9855V48.9873C60.8999 51.3442 62.8109 53.255 65.1682 53.255H71.4592C73.8165 53.255 75.7275 51.3442 75.7275 48.9873V48.9855C75.7275 46.6285 73.8165 44.7178 71.4592 44.7178Z" fill="#FF6B6B"/>
<path d="M44.919 35.6538C44.919 30.7997 40.9834 26.8647 36.1285 26.8647C31.2737 26.8647 27.3381 30.7997 27.3381 35.6538V39.819C27.3381 44.673 31.2737 48.608 36.1285 48.608C40.9834 48.608 44.919 44.673 44.919 39.819V35.6538Z" fill="white"/>
<path d="M41.7358 35.3764C41.7358 32.8226 39.6653 30.7524 37.1112 30.7524C34.5571 30.7524 32.4866 32.8226 32.4866 35.3764V40.0939C32.4866 42.6476 34.5571 44.7178 37.1112 44.7178C39.6653 44.7178 41.7358 42.6476 41.7358 40.0939V35.3764Z" fill="#343434"/>
<path d="M54.5299 39.8169C54.5299 44.671 58.4655 48.606 63.3203 48.606C68.1751 48.606 72.1107 44.671 72.1107 39.8169V35.6517C72.1107 30.7977 68.1751 26.8627 63.3203 26.8627C58.4655 26.8627 54.5299 30.7977 54.5299 35.6517V39.8169Z" fill="white"/>
<path d="M57.7114 40.0938C57.7114 42.6476 59.7819 44.7178 62.3361 44.7178C64.8902 44.7178 66.9607 42.6476 66.9607 40.0938V35.3763C66.9607 32.8226 64.8902 30.7524 62.3361 30.7524C59.7819 30.7524 57.7114 32.8226 57.7114 35.3763V40.0938Z" fill="#343434"/>
<path d="M39.2308 38.2769L41.9174 39.8278V35.6411L39.2308 37.192C38.8134 37.4331 38.8134 38.0358 39.2308 38.2769Z" fill="white"/>
<path d="M64.5043 38.2769L67.1909 39.8278V35.6411L64.5043 37.192C64.0868 37.4331 64.0868 38.0358 64.5043 38.2769Z" fill="white"/>
<path d="M44.0571 44.7178C44.9317 50.7775 54.4635 50.7721 55.329 44.7178H44.0571Z" fill="#E38702"/>
<path d="M49.6928 37.3071C47.1753 38.6655 44.9818 40.9217 43.06 43.93C42.9178 44.1531 42.9988 44.4481 43.2309 44.5759C44.2026 45.1048 49.6946 46.5172 49.6946 46.5172C49.6946 46.5172 55.1866 45.103 56.1583 44.5759C56.3904 44.4499 56.4714 44.1531 56.3292 43.93C54.4074 40.9217 52.2139 38.6655 49.6964 37.3071" fill="#FFBC50"/>
</svg>
