<svg width="2048" height="2048" viewBox="0 0 2048 2048" fill="none" xmlns="http://www.w3.org/2000/svg">
<g clip-path="url(#clip0_2458_2313)">
<rect width="2048" height="2048" rx="400" fill="#F44343"/>
<path d="M1023.71 74.3296C1678.75 79.6465 2048.3 441.198 2033.48 1282.35C2280.31 2322.02 1906.16 2866.56 1023.71 2847.32C141.266 2866.56 -232.828 2322.02 13.9389 1282.35C-0.879108 441.138 368.674 79.6465 1023.71 74.3296Z" fill="#FFD0D0"/>
<path d="M2033.48 1282.35C2048.3 441.139 1678.75 79.647 1023.71 74.3301C368.673 79.647 -0.879562 441.198 13.9384 1282.35C-135.257 1910.82 -57.4627 2358.28 222.286 2609.73C191.157 2543.78 174.128 2472.8 174.128 2398.85C174.128 2050.08 551.149 1767.39 1016.24 1767.39C1481.34 1767.39 1858.36 2050.08 1858.36 2398.85C1858.36 2481.35 1837.21 2560.15 1798.85 2632.43C2099.99 2385.7 2187.34 1930.18 2033.54 1282.35H2033.48Z" fill="#F44343"/>
<path d="M1284.46 98.3448C1226.5 -86.8517 1093.98 -217.744 900.985 -304.607C885.33 -311.656 867.226 -303.771 861.132 -287.76C836.694 -223.718 841.295 -147.907 868.242 -62.9554C812.376 -67.9736 760.453 -65.7035 713.968 -53.6358C697.477 -49.3345 687.977 -31.7707 693.474 -15.6407C710.502 34.6013 739.063 73.3134 781.306 98.4046H1284.52L1284.46 98.3448Z" fill="#F44343"/>
<path d="M503.349 1177.62H294.464C216.19 1177.62 152.737 1241.07 152.737 1319.33V1319.39C152.737 1397.65 216.19 1461.09 294.464 1461.09H503.349C581.622 1461.09 645.076 1397.65 645.076 1319.39V1319.33C645.076 1241.07 581.622 1177.62 503.349 1177.62Z" fill="#FF6B6B"/>
<path d="M1746.44 1177.62H1537.56C1459.29 1177.62 1395.83 1241.07 1395.83 1319.33V1319.39C1395.83 1397.65 1459.29 1461.09 1537.56 1461.09H1746.44C1824.72 1461.09 1888.17 1397.65 1888.17 1319.39V1319.33C1888.17 1241.07 1824.72 1177.62 1746.44 1177.62Z" fill="#FF6B6B"/>
<path d="M865.193 876.647C865.193 715.472 734.515 584.813 573.315 584.813C412.115 584.813 281.437 715.472 281.437 876.647V1014.95C281.437 1176.12 412.115 1306.78 573.315 1306.78C734.515 1306.78 865.193 1176.12 865.193 1014.95V876.647Z" fill="white"/>
<path d="M759.496 867.447C759.496 782.653 690.746 713.914 605.939 713.914C521.131 713.914 452.381 782.653 452.381 867.447V1024.09C452.381 1108.88 521.131 1177.62 605.939 1177.62C690.746 1177.62 759.496 1108.88 759.496 1024.09V867.447Z" fill="#343434"/>
<path d="M1184.32 1014.89C1184.32 1176.06 1315 1306.72 1476.2 1306.72C1637.4 1306.72 1768.08 1176.06 1768.08 1014.89V876.586C1768.08 715.411 1637.4 584.752 1476.2 584.752C1315 584.752 1184.32 715.411 1184.32 876.586V1014.89Z" fill="white"/>
<path d="M1289.96 1024.09C1289.96 1108.88 1358.71 1177.62 1443.51 1177.62C1528.32 1177.62 1597.07 1108.88 1597.07 1024.09V867.446C1597.07 782.651 1528.32 713.912 1443.51 713.912C1358.71 713.912 1289.96 782.651 1289.96 867.446V1024.09Z" fill="#343434"/>
<path d="M676.323 963.748L765.53 1015.24V876.228L676.323 927.725C662.461 935.73 662.461 955.743 676.323 963.748Z" fill="white"/>
<path d="M1515.51 963.748L1604.72 1015.24V876.228L1515.51 927.725C1501.65 935.73 1501.65 955.743 1515.51 963.748Z" fill="white"/>
<path d="M836.572 1177.62C865.61 1378.83 1182.11 1378.65 1210.85 1177.62H836.572Z" fill="#E38702"/>
<path d="M1023.71 931.551C940.119 976.655 867.284 1051.57 803.471 1151.46C798.75 1158.86 801.439 1168.66 809.147 1172.9C841.412 1190.47 1023.77 1237.36 1023.77 1237.36C1023.77 1237.36 1206.12 1190.41 1238.39 1172.9C1246.1 1168.72 1248.79 1158.86 1244.07 1151.46C1180.25 1051.57 1107.42 976.655 1023.83 931.551" fill="#FFBC50"/>
</g>
<defs>
<clipPath id="clip0_2458_2313">
<rect width="2048" height="2048" rx="400" fill="white"/>
</clipPath>
</defs>
</svg>
