<svg width="400" height="400" viewBox="0 0 400 400" fill="none" xmlns="http://www.w3.org/2000/svg">
<g clip-path="url(#clip0_2132_1395)">
<path d="M238.75 97.4785C263.976 97.4785 286.661 103.236 306.579 114.938H306.578C326.377 126.265 341.895 142.144 353.051 162.43C364.6 182.574 370.254 205.783 370.254 231.813C370.254 257.545 364.75 280.714 353.546 301.118L353.521 301.163C342.348 321.188 326.818 337.064 307.03 348.689L306.99 348.713L306.949 348.736C287.03 360.113 264.221 365.692 238.75 365.692C213.278 365.692 190.469 360.113 170.55 348.736L170.509 348.713L170.469 348.689C150.7 337.075 135.04 321.225 123.573 301.243L123.537 301.181L123.502 301.118C116.043 287.532 111.111 272.72 108.647 256.742H58.9849C50.945 256.742 43.7881 254.154 38.2563 248.557C32.7328 242.968 30.2026 235.772 30.2026 227.711C30.2026 219.65 32.7328 212.454 38.2563 206.865C43.7881 201.268 50.945 198.68 58.9849 198.68H110.104C112.847 185.698 117.308 173.613 123.528 162.464L123.537 162.447L123.546 162.43C135 142.149 150.663 126.269 170.469 114.938C190.402 103.227 213.241 97.4785 238.75 97.4785ZM238.75 153.719C224.364 153.719 211.943 157.062 201.248 163.555C190.47 170.098 181.941 179.232 175.64 191.15L175.623 191.183L175.605 191.216C169.384 202.71 166.16 216.17 166.16 231.813C166.16 247.457 169.384 260.917 175.605 272.411C181.893 284.029 190.425 293.047 201.248 299.617C211.943 306.11 224.364 309.453 238.75 309.453C253.136 309.453 265.557 306.11 276.252 299.617C287.045 293.065 295.397 284.088 301.378 272.535L301.41 272.473L301.444 272.411C307.664 260.917 310.889 247.457 310.889 231.813C310.889 216.17 307.664 202.709 301.444 191.216L301.393 191.122L301.345 191.027C295.351 179.172 286.999 170.079 276.252 163.555C265.557 157.062 253.136 153.719 238.75 153.719Z" fill="#E56B2E" stroke="#E56B2E" stroke-width="15.2123"/>
<path d="M76.7681 163.638C76.7681 122.344 43.2933 88.8696 2.0002 88.8696L2.0002 294.702C2.0002 335.996 35.4749 369.47 76.7681 369.47L76.7681 163.638Z" fill="#E56B2E"/>
<path d="M121.925 91.5368C120.741 74.0112 138.972 61.7753 154.742 69.5124L229.169 106.027C244.939 113.764 246.419 135.671 231.834 145.46L162.998 191.658C148.412 201.446 128.7 191.775 127.516 174.249L121.925 91.5368Z" fill="#E56B2E"/>
<path d="M398.94 120.029C404.018 103.214 388.988 87.2071 371.886 91.2176L291.174 110.145C274.072 114.156 267.725 135.175 279.749 147.981L336.497 208.415C348.521 221.22 369.898 216.207 374.976 199.392L398.94 120.029Z" fill="#E56B2E"/>
</g>
<defs>
<clipPath id="clip0_2132_1395">
<rect width="400" height="400" fill="white"/>
</clipPath>
</defs>
</svg>
