<svg width="48" height="48" viewBox="0 0 48 48" fill="none" xmlns="http://www.w3.org/2000/svg">
<path d="M24 0C37.2548 0 48 10.7452 48 24C48 37.2548 37.2548 48 24 48C10.7452 48 0 37.2548 0 24C0 10.7452 10.7452 0 24 0ZM33.8125 14.4482C32.9098 14.4642 31.5246 14.9459 24.8604 17.7178C22.526 18.6887 17.8598 20.6988 10.8633 23.7471C9.7278 24.1987 9.13254 24.6403 9.07812 25.0723C8.97411 25.902 10.1689 26.1608 11.6719 26.6494C12.8972 27.0477 14.5454 27.5136 15.4023 27.5322C16.1796 27.549 17.0471 27.228 18.0049 26.5703C24.5419 22.1576 27.917 19.928 28.1289 19.8799C28.2784 19.846 28.4857 19.8031 28.626 19.9277C28.7657 20.0522 28.7521 20.2876 28.7373 20.3516C28.6184 20.8583 22.4774 26.4445 22.124 26.8115C20.7737 28.214 19.238 29.0724 21.6074 30.6338C23.6576 31.9848 24.8508 32.8469 26.9629 34.2314C28.3128 35.1163 29.3719 36.1654 30.7656 36.0371C31.4067 35.9778 32.0689 35.3749 32.4053 33.5771C33.2003 29.3269 34.7628 20.1174 35.124 16.3223C35.1557 15.9898 35.116 15.5637 35.084 15.377C35.052 15.1903 34.9855 14.9244 34.7432 14.7275C34.4556 14.4942 34.011 14.4447 33.8125 14.4482Z" fill="white"/>
</svg>
